<?xml version="1.0" standalone="no"?>
<!DOCTYPE svg PUBLIC "-//W3C//DTD SVG 20010904//EN"
 "http://www.w3.org/TR/2001/REC-SVG-20010904/DTD/svg10.dtd">
<svg version="1.0" xmlns="http://www.w3.org/2000/svg"
 width="16.000000pt" height="16.000000pt" viewBox="0 0 16.000000 16.000000"
 preserveAspectRatio="xMidYMid meet">
<metadata>
Created by potrace 1.16, written by Peter Selinger 2001-2019
</metadata>
<g transform="translate(0.000000,16.000000) scale(0.100000,-0.100000)"
fill="#000000" stroke="none">
<path d="M35 130 c-9 -16 -20 -30 -25 -30 -6 0 -10 -9 -10 -20 0 -11 4 -20 10
-20 5 0 16 -13 25 -30 12 -23 22 -30 45 -30 23 0 33 7 45 30 9 16 20 30 25 30
6 0 10 9 10 20 0 11 -4 20 -10 20 -5 0 -16 14 -25 30 -12 23 -22 30 -45 30
-23 0 -33 -7 -45 -30z"/>
</g>
</svg>
